<svg width="1470" height="1470" viewBox="0 0 1470 1470" fill="none" xmlns="http://www.w3.org/2000/svg">
<path d="M1138.21 821.427C1138.04 821.307 1111.45 803.867 1061.21 799.147C1058.04 831.56 1046.81 892.733 1007.49 955.48C955.987 1037.71 844.653 1138.09 606.827 1149.43L569.261 1151.21L585.984 1117.52C586.933 1115.61 673.676 937.413 613.156 826.853C597.895 846.867 573.532 871.627 540.197 883.747C496.379 899.68 475.023 926.507 462.771 945.293C452.608 960.867 416.193 1000.44 370.316 996.387C332.713 993.067 301.367 962.52 277.148 905.573L273.435 896.84L277.207 888.133C277.613 887.2 318.125 793.467 342.751 717.547C347.684 702.333 352.224 686.52 356.615 671.227C374.137 610.213 390.775 552.267 432.568 525.133C431.824 498.24 428.915 436.307 417.679 400.92L402.288 352.44L448.225 374.28C451.115 375.653 465.893 382.84 482.005 393.667C481.281 386.667 480.001 379.88 477.917 374.08L458.309 319.454L509.279 347.2C516.252 351 572.419 382.2 603.233 418.467C625.405 414.133 670.424 407.88 728.044 413.267C802.707 420.24 913.88 448.947 1019.51 546.053L1082.79 604.227L1001.15 584.24C1058.63 621.653 1129.76 686.987 1171.44 795.347L1197.23 862.413L1138.21 821.427ZM735.333 0.866803C329.696 0.866803 0.861328 329.693 0.861328 735.333C0.861328 1140.97 329.696 1469.8 735.333 1469.8C1140.97 1469.8 1469.8 1140.97 1469.8 735.333C1469.8 329.693 1140.97 0.866803 735.333 0.866803Z" fill="#393536"/>
</svg>
